<svg xmlns="http://www.w3.org/2000/svg" viewBox="0 0 24 24" width="24" height="24" fill="none" stroke="currentColor" stroke-width="1.8" stroke-linecap="round" stroke-linejoin="round">
  <!-- Left Base Cube -->
  <g>
    <path d="M 7,13.7 L 11.5,16 V 20.5 L 7,22.7 L 2.5,20.5 V 16 Z" />
    <path d="M 2.5,16 L 7,18.3 L 11.5,16" />
    <line x1="7" y1="18.3" x2="7" y2="22.7" />
  </g>

  <!-- Right Base Cube -->
  <g>
    <path d="M 17,13.7 L 21.5,16 V 20.5 L 17,22.7 L 12.5,20.5 V 16 Z" />
    <path d="M 12.5,16 L 17,18.3 L 21.5,16" />
    <line x1="17" y1="18.3" x2="17" y2="22.7" />
  </g>

  <!-- Dotted drop line -->
  <path d="M 12,11.5 V 15.5" stroke-dasharray="1.5 1.5" stroke-width="1.2" />

  <!-- Top Floating Cube -->
  <g>
    <path d="M 12,3.7 L 16.5,6 V 10.5 L 12,12.7 L 7.5,10.5 V 6 Z" stroke-width="2" />
    <path d="M 7.5,6 L 12,8.3 L 16.5,6" />
    <line x1="12" y1="8.3" x2="12" y2="10.5" />
  </g>
</svg>
