<svg xmlns="http://www.w3.org/2000/svg" viewBox="0 0 24 24" width="24" height="24" fill="none" stroke="currentColor" stroke-width="1.8" stroke-linecap="round" stroke-linejoin="round">
  <!-- Top-Left Cube -->
  <g>
    <path d="M 8.5,5.5 L 12,7.5 V 11.5 L 8.5,13.5 L 5,11.5 V 7.5 Z" />
    <path d="M 5,7.5 L 8.5,9.5 L 12,7.5" />
    <line x1="8.5" y1="9.5" x2="8.5" y2="13.5" />
  </g>

  <!-- Top-Right Cube -->
  <g>
    <path d="M 15.5,5.5 L 19,7.5 V 11.5 L 15.5,13.5 L 12,11.5 V 7.5 Z" />
    <path d="M 12,7.5 L 15.5,9.5 L 19,7.5" />
    <line x1="15.5" y1="9.5" x2="15.5" y2="13.5" />
  </g>

  <!-- Bottom-Left Cube -->
  <g>
    <path d="M 8.5,12.5 L 12,14.5 V 18.5 L 8.5,20.5 L 5,18.5 V 14.5 Z" />
    <path d="M 5,14.5 L 8.5,16.5 L 12,14.5" />
    <line x1="8.5" y1="16.5" x2="8.5" y2="20.5" />
  </g>

  <!-- Bottom-Right Cube -->
  <g>
    <path d="M 15.5,12.5 L 19,14.5 V 18.5 L 15.5,20.5 L 12,18.5 V 14.5 Z" />
    <path d="M 12,14.5 L 15.5,16.5 L 19,14.5" />
    <line x1="15.5" y1="16.5" x2="15.5" y2="20.5" />
  </g>
</svg>
